# Blender 3.3.1
# www.blender.org
o Arm1
v 0.103651 2.374130 0.100000
v -0.096348 2.373400 0.100000
v 0.103651 2.374130 -0.100000
v -0.096348 2.373400 -0.100000
v 0.096348 4.374117 0.100000
v -0.103651 4.373386 0.100000
v 0.096348 4.374117 -0.100000
v -0.103651 4.373386 -0.100000
vn 0.0037 -1.0000 -0.0000
vn -0.0000 -0.0000 -1.0000
vn -0.0037 1.0000 -0.0000
vn -0.0000 -0.0000 1.0000
vn 1.0000 0.0037 -0.0000
vn -1.0000 -0.0037 -0.0000
s 0
f 2//1 3//1 1//1
f 4//2 7//2 3//2
f 8//3 5//3 7//3
f 6//4 1//4 5//4
f 7//5 1//5 3//5
f 4//6 6//6 8//6
f 2//1 4//1 3//1
f 4//2 8//2 7//2
f 8//3 6//3 5//3
f 6//4 2//4 1//4
f 7//5 5//5 1//5
f 4//6 2//6 6//6
