# Blender 3.3.1
# www.blender.org
o Base
v 0.425834 0.124204 0.718165
v 0.848411 0.145894 -0.017334
v 0.849686 0.823908 0.492858
v -0.422690 0.124329 0.720118
v -0.848638 0.146146 -0.013426
v -0.426064 0.167841 -0.748928
v 0.422464 0.167710 -0.750882
v -0.423512 1.523864 0.271456
v -0.847363 0.824160 0.496763
v 0.425013 1.523739 0.269504
v -0.000934 1.545555 -0.464042
v -0.002212 0.867544 -0.974239
vn 0.8175 -0.3473 0.4595
vn -0.0002 -0.9996 -0.0296
vn 0.0022 0.3053 0.9523
vn -0.8175 0.3473 -0.4594
vn -0.8155 -0.3470 0.4632
vn 0.0002 0.9996 0.0296
vn 0.8155 0.3470 -0.4632
vn -0.0022 -0.3053 -0.9523
vn -0.8175 0.3473 -0.4595
s 0
f 1//1 2//1 3//1
f 6//2 7//2 2//2
f 1//3 3//3 10//3
f 8//4 11//4 12//4
f 9//5 5//5 4//5
f 8//6 10//6 11//6
f 2//7 7//7 11//7
f 12//8 7//8 6//8
f 2//2 1//2 4//2
f 4//2 5//2 2//2
f 5//2 6//2 2//2
f 10//3 8//3 1//3
f 8//3 9//3 1//3
f 9//3 4//3 1//3
f 12//4 6//4 8//4
f 6//4 5//4 8//4
f 5//9 9//9 8//9
f 7//7 12//7 11//7
f 11//7 10//7 3//7
f 3//7 2//7 11//7
