# Blender 3.3.1
# www.blender.org
o Pen
v 0.000000 4.733044 -2.253933
v -0.124981 4.733044 -2.128952
v 0.000000 4.733043 -2.003971
v 0.124981 4.733044 -2.128952
v -0.124981 4.483025 -2.378971
v -0.250019 4.483025 -2.253933
v -0.250019 4.608006 -2.128952
v 0.000000 4.608006 -2.378971
v 0.000000 4.358044 -2.378971
v 0.000000 4.233028 -2.253954
v -0.125003 4.233027 -2.128952
v -0.250019 4.358044 -2.128952
v 0.250019 4.358044 -2.128952
v 0.125002 4.233027 -2.128952
v 0.124981 4.483025 -2.378971
v 0.250019 4.483025 -2.253933
v 0.000000 4.358029 -1.878948
v 0.000000 4.233027 -2.003950
v 0.250019 4.483025 -2.003971
v 0.124995 4.483025 -1.878948
v -0.124995 4.483025 -1.878948
v -0.250019 4.483025 -2.003971
v 0.000000 4.608020 -1.878948
v 0.250019 4.608006 -2.128952
vn -0.0000 1.0000 -0.0000
vn -0.5774 0.5774 -0.5774
vn -0.5774 -0.5774 -0.5773
vn 0.5773 -0.5774 -0.5773
vn 0.5773 -0.5774 0.5774
vn -0.5773 -0.5774 0.5774
vn -0.0000 -1.0000 -0.0000
vn -0.0000 -0.0000 1.0000
vn 0.5774 0.5773 0.5774
vn 1.0000 -0.0000 -0.0000
vn 0.5774 0.5774 -0.5774
vn -0.0000 -0.0000 -1.0000
vn -0.5773 0.5773 0.5774
vn -1.0000 -0.0000 -0.0000
vn -0.5774 0.5774 -0.5773
vn -0.5773 -0.5774 -0.5774
vn 0.5773 -0.5774 -0.5774
vn 0.5774 -0.5774 -0.5773
vn 0.5774 -0.5774 0.5774
vn 0.5773 0.5773 0.5774
vn 0.5773 0.5774 0.5774
vn 0.5774 0.5774 -0.5773
vn -0.5774 0.5773 0.5774
vn -0.5773 0.5774 0.5774
s 0
f 2//1 4//1 1//1
f 1//2 8//2 6//2
f 6//3 5//3 10//3
f 16//4 10//4 15//4
f 20//5 14//5 19//5
f 21//6 22//6 11//6
f 18//7 10//7 14//7
f 17//8 23//8 21//8
f 4//9 3//9 23//9
f 16//10 19//10 13//10
f 15//11 8//11 1//11
f 15//12 5//12 8//12
f 21//13 23//13 2//13
f 6//14 22//14 7//14
f 2//1 3//1 4//1
f 8//15 5//15 6//15
f 6//15 7//15 2//15
f 2//2 1//2 6//2
f 5//3 9//3 10//3
f 10//16 11//16 6//16
f 11//16 12//16 6//16
f 16//17 13//17 14//17
f 14//4 10//4 16//4
f 10//18 9//18 15//18
f 20//5 17//5 18//5
f 18//19 14//19 20//19
f 14//5 13//5 19//5
f 22//6 12//6 11//6
f 11//6 18//6 17//6
f 17//6 21//6 11//6
f 18//7 11//7 10//7
f 17//8 20//8 23//8
f 23//20 20//20 4//20
f 20//21 19//21 24//21
f 4//20 20//20 24//20
f 16//10 24//10 19//10
f 1//22 4//22 24//22
f 24//22 16//22 1//22
f 16//11 15//11 1//11
f 15//12 9//12 5//12
f 3//23 2//23 23//23
f 2//23 7//23 21//23
f 7//24 22//24 21//24
f 6//14 12//14 22//14
