# Blender 3.3.1
# www.blender.org
o Joint.001
v 0.001482 4.589766 -3.673503
v 0.001482 4.651570 -3.573503
v 0.096589 4.620668 -3.511700
v 0.155367 4.539767 -3.573503
v 0.096589 4.520669 -3.673503
v -0.093624 4.520669 -3.673503
v -0.152402 4.539767 -3.573503
v -0.093624 4.620668 -3.511700
v -0.057296 4.408865 -3.673503
v -0.093624 4.358865 -3.573503
v -0.152402 4.439767 -3.511700
v 0.060260 4.408865 -3.673503
v 0.096589 4.358865 -3.573503
v 0.001482 4.327963 -3.511700
v 0.155367 4.439767 -3.511700
v 0.060260 4.570668 -3.411699
v 0.096589 4.458865 -3.411699
v -0.057296 4.570668 -3.411699
v -0.093624 4.458865 -3.411699
v 0.001482 4.389767 -3.411699
vn 0.5257 0.7236 -0.4472
vn -0.5257 0.7236 -0.4472
vn -0.8507 -0.2764 -0.4472
vn -0.0000 -0.8944 -0.4472
vn 0.8507 -0.2764 -0.4472
vn 0.8507 0.2764 0.4472
vn -0.0000 0.8944 0.4472
vn -0.8506 0.2764 0.4472
vn -0.5257 -0.7236 0.4472
vn 0.5257 -0.7236 0.4472
vn -0.0000 -0.0000 1.0000
vn -0.0000 -0.0000 -1.0000
vn -0.8506 -0.2764 -0.4472
vn 0.8506 -0.2764 -0.4472
vn 0.8506 0.2764 0.4472
vn -0.8507 0.2764 0.4472
s 0
f 2//1 3//1 4//1
f 7//2 2//2 1//2
f 11//3 7//3 6//3
f 14//4 10//4 9//4
f 4//5 15//5 13//5
f 16//6 17//6 15//6
f 16//7 3//7 2//7
f 19//8 18//8 8//8
f 20//9 19//9 11//9
f 17//10 20//10 14//10
f 20//11 17//11 16//11
f 1//12 5//12 12//12
f 5//1 1//1 4//1
f 1//1 2//1 4//1
f 1//2 6//2 7//2
f 7//2 8//2 2//2
f 6//13 9//13 10//13
f 10//3 11//3 6//3
f 9//4 12//4 13//4
f 13//4 14//4 9//4
f 12//14 5//14 13//14
f 5//5 4//5 13//5
f 4//6 3//6 15//6
f 3//15 16//15 15//15
f 2//7 8//7 18//7
f 18//7 16//7 2//7
f 7//16 11//16 8//16
f 11//16 19//16 8//16
f 10//9 14//9 11//9
f 14//9 20//9 11//9
f 13//10 15//10 14//10
f 15//10 17//10 14//10
f 16//11 18//11 19//11
f 19//11 20//11 16//11
f 12//12 9//12 6//12
f 6//12 1//12 12//12
