# Blender 3.3.1
# www.blender.org
o Top
v 0.011789 2.425877 0.269136
v 0.497198 2.240464 -0.030841
v 0.011789 2.425877 -0.330841
v -0.288211 1.940466 0.454547
v 0.011789 1.455056 0.269135
v 0.497198 1.640466 -0.030841
v -0.473621 2.240464 -0.030841
v -0.288211 1.940466 -0.516301
v 0.011789 1.455056 -0.330841
v -0.473621 1.640466 -0.030841
v 0.311792 1.940466 0.454547
v 0.311792 1.940466 -0.516301
vn 0.3568 0.9342 -0.0000
vn -0.5257 -0.0000 -0.8507
vn -0.8507 -0.5257 -0.0000
vn -0.5773 -0.5773 0.5774
vn -0.0000 -0.3568 0.9342
vn 0.5773 -0.5774 0.5774
vn 0.3568 -0.9342 -0.0000
vn -0.3568 -0.9342 -0.0000
vn -0.5773 -0.5774 -0.5773
vn -0.0000 -0.3569 -0.9341
vn 0.5773 -0.5774 -0.5773
vn 0.9342 -0.0000 -0.3568
vn 0.5773 0.5774 -0.5773
vn -0.0000 0.3569 -0.9341
vn -0.5773 0.5774 -0.5773
vn -0.9342 -0.0000 -0.3568
vn -0.9342 -0.0000 0.3568
vn -0.5773 0.5773 0.5774
vn -0.0000 0.3568 0.9342
vn 0.5773 0.5774 0.5774
vn 0.9342 -0.0000 0.3568
vn -0.3568 0.9342 -0.0000
s 0
f 1//1 2//1 3//1
f 1//2 2//2 6//2
f 7//3 8//3 9//3
f 5//4 4//4 10//4
f 4//5 5//5 11//5
f 11//6 5//6 6//6
f 6//7 5//7 9//7
f 5//8 10//8 9//8
f 8//9 9//9 10//9
f 12//10 9//10 8//10
f 6//11 9//11 12//11
f 6//12 12//12 2//12
f 12//13 3//13 2//13
f 8//14 3//14 12//14
f 8//15 7//15 3//15
f 8//16 10//16 7//16
f 10//17 4//17 7//17
f 4//18 1//18 7//18
f 1//19 4//19 11//19
f 11//20 2//20 1//20
f 11//21 6//21 2//21
f 3//22 7//22 1//22
f 5//2 4//2 6//2
f 4//2 1//2 6//2
f 9//3 5//3 4//3
f 4//3 7//3 9//3
